PathFileType	3	(X/Y/Z)	D:\VICON_DB\Goncalves\Pilot01\09-03-2026\bw_sq_01.trc
DataRate	CameraRate	NumFrames	NumMarkers	Units	OrigDataRate	OrigDataStartFrame	OrigNumFrames
200.0	200.0	4	34	mm	200.0	96	767	
Frame#	Time	LASI			RASI			LPSI			RPSI			LTHI			LTHAP			LTHAD			LKNE			LKNM			LTIB			LTIAP			LTIAD			LANK			LMED			LHEE			LTOE			LFMH			LSMH			LVMH			RTHI			RTHAP			RTHAD			RKNE			RKNM			RTIB			RTIAP			RTIAD			RANK			RMED			RHEE			RTOE			RFMH			RSMH			RVMH			
		X1	Y1	Z1	X2	Y2	Z2	X3	Y3	Z3	X4	Y4	Z4	X5	Y5	Z5	X6	Y6	Z6	X7	Y7	Z7	X8	Y8	Z8	X9	Y9	Z9	X10	Y10	Z10	X11	Y11	Z11	X12	Y12	Z12	X13	Y13	Z13	X14	Y14	Z14	X15	Y15	Z15	X16	Y16	Z16	X17	Y17	Z17	X18	Y18	Z18	X19	Y19	Z19	X20	Y20	Z20	X21	Y21	Z21	X22	Y22	Z22	X23	Y23	Z23	X24	Y24	Z24	X25	Y25	Z25	X26	Y26	Z26	X27	Y27	Z27	X28	Y28	Z28	X29	Y29	Z29	X30	Y30	Z30	X31	Y31	Z31	X32	Y32	Z32	X33	Y33	Z33	X34	Y34	Z34	
96	0.475	125.96005	902.55872	-1062.8037	124.57999	901.4942	-1325.1757				326.51462	936.83655	-1222.9774	132.22874	693.94879	-1031.9381	149.1629	767.68066	-1017.5455	176.47913	629.43445	-1008.7903	230.26468	474.5148	-1024.0204				269.3927	281.2464	-1005.0399	212.86836	356.76794	-1061.2745	228.60617	254.26642	-1034.4434	287.34674	70.261452	-1029.4313				330.00479	62.085434	-1082.5953	205.86833	71.726128	-1051.0847	149.0303	44.647594	-1077.0839				163.24635	25.294502	-996.10187	170.67978	624.33105	-1375.0864	132.43588	749.90619	-1353.7153	116.62347	657.61981	-1330.9326	221.63133	489.79865	-1360.3953				245.74255	295.69556	-1378.4701	206.36334	345.0766	-1323.3279	213.86371	263.60641	-1325.7812	294.71628	62.291016	-1351.9702				331.4465	58.668888	-1310.8868	202.5605	68.739082	-1334.6929	152.38927	48.962696	-1309.0045				164.89897	20.300407	-1382.9518
97	0.48	125.96403	902.55219	-1062.7838	124.53002	901.47748	-1325.1533				326.50717	936.79938	-1222.9781	132.25204	693.94556	-1031.8835	149.17194	767.68402	-1017.5121	176.49281	629.43353	-1008.7584	230.27559	474.51761	-1024.0073				269.39478	281.2489	-1005.0324	212.86916	356.76965	-1061.2595	228.60448	254.26834	-1034.4342	287.34161	70.260864	-1029.4319				330.00247	62.091923	-1082.5947	205.86523	71.727211	-1051.0811	149.02846	44.648582	-1077.0822				163.24521	25.294847	-996.1004	170.64499	624.32367	-1375.0671	132.40611	749.89539	-1353.6854	116.58862	657.61157	-1330.9097	221.60103	489.79208	-1360.3722				245.72853	295.69214	-1378.4464	206.33452	345.06836	-1323.3124	213.84283	263.6012	-1325.7671	294.7164	62.300594	-1351.9702				331.44998	58.675529	-1310.869	202.558	68.739784	-1334.6866	152.38815	48.96067	-1309.0028				164.90488	20.296328	-1382.9473
98	0.485	125.96622	902.54462	-1062.7653	124.47489	901.45947	-1325.1317				326.49808	936.76105	-1222.9779	132.27617	693.94061	-1031.825	149.17915	767.68707	-1017.4775	176.50433	629.43188	-1008.7259	230.28427	474.52008	-1023.9952				269.39514	281.2514	-1005.0256	212.86807	356.77109	-1061.2446	228.60127	254.26996	-1034.4255	287.33603	70.26046	-1029.4327				329.99963	62.098751	-1082.5942	205.86209	71.728195	-1051.077	149.02649	44.649288	-1077.0804				163.24409	25.294806	-996.09894	170.61072	624.31573	-1375.0502	132.37492	749.88318	-1353.6575	116.55234	657.60266	-1330.8921	221.57297	489.78537	-1360.35				245.71629	295.68918	-1378.425	206.30769	345.06033	-1323.2979	213.82341	263.59662	-1325.7543	294.71674	62.309681	-1351.9697				331.45349	58.681366	-1310.8508	202.55598	68.74041	-1334.6803	152.38722	48.958549	-1309.0009				164.91077	20.29294	-1382.9429
99	0.49	125.96638	902.53564	-1062.7477	124.41434	901.44	-1325.111				326.48679	936.72144	-1222.9769	132.30057	693.9342	-1031.7632	149.18439	767.68988	-1017.442	176.51373	629.42957	-1008.6935	230.29085	474.52209	-1023.9839				269.39377	281.25372	-1005.0198	212.86519	356.77213	-1061.2302	228.59662	254.27115	-1034.4171	287.32983	70.260246	-1029.4335				329.99625	62.105789	-1082.5936	205.85901	71.728943	-1051.0724	149.02434	44.64957	-1077.0789				163.24306	25.294239	-996.09717	170.57693	624.30725	-1375.0359	132.34216	749.86914	-1353.6318	116.51504	657.59308	-1330.8792	221.54723	489.77835	-1360.3293				245.70586	295.68634	-1378.4059	206.28299	345.0524	-1323.2849	213.80533	263.59277	-1325.7433	294.7175	62.318153	-1351.9686				331.45673	58.686119	-1310.833	202.55446	68.740906	-1334.6742	152.38652	48.956272	-1308.9987				164.91605	20.290838	-1382.9397
